<?xml version="1.0" encoding="UTF-8" standalone="no"?>
<svg
   xmlns:dc="http://purl.org/dc/elements/1.1/"
   xmlns:cc="http://creativecommons.org/ns#"
   xmlns:rdf="http://www.w3.org/1999/02/22-rdf-syntax-ns#"
   xmlns:svg="http://www.w3.org/2000/svg"
   xmlns="http://www.w3.org/2000/svg"
   xmlns:sodipodi="http://sodipodi.sourceforge.net/DTD/sodipodi-0.dtd"
   xmlns:inkscape="http://www.inkscape.org/namespaces/inkscape"
   viewBox="0 0 32 32"
   version="1.1"
   id="svg21"
   sodipodi:docname="vbs.svg"
   inkscape:version="1.0.2 (e86c870879, 2021-01-15)">
  <circle
     cx="16"
     cy="16"
     r="16"
     fill-opacity="1"
     fill="#FFF"
     id="circle9" />
  <circle
     cx="16"
     cy="16"
     r="15.3"
     fill-opacity="1"
     fill="#333"
     id="circle11" />
  <metadata
     id="metadata25">
    <rdf:RDF>
      <cc:Work
         rdf:about="">
        <dc:format>image/svg+xml</dc:format>
        <dc:type
           rdf:resource="http://purl.org/dc/dcmitype/StillImage" />
      </cc:Work>
    </rdf:RDF>
  </metadata>
  <sodipodi:namedview
     pagecolor="#ffffff"
     bordercolor="#666666"
     borderopacity="1"
     objecttolerance="10"
     gridtolerance="10"
     guidetolerance="10"
     inkscape:pageopacity="0"
     inkscape:pageshadow="2"
     inkscape:window-width="1920"
     inkscape:window-height="1027"
     id="namedview23"
     showgrid="false"
     inkscape:zoom="19.003495"
     inkscape:cx="8.6228535"
     inkscape:cy="15.560502"
     inkscape:window-x="-8"
     inkscape:window-y="-8"
     inkscape:window-maximized="1"
     inkscape:current-layer="svg21" />
  <defs
     id="defs7">
    <linearGradient
       id="grad1"
       x1="0%"
       y1="85%"
       x2="0%"
       y2="95%">
      <stop
         offset="0%"
         style="stop-color:rgb(0,220,220);stop-opacity:1"
         id="stop2" />
      <stop
         offset="100%"
         style="stop-color:rgb(0,170,170);stop-opacity:1"
         id="stop4" />
    </linearGradient>
  </defs>
  <!--<rect x="0" y="0" width="32" height="32" fill-opacity="1" fill="#888888" />-->
  <!--<rect x="3" y="0" width="32" height="32" fill-opacity="0" stroke-width="0.1" stroke="black" />-->
  <text
     xml:space="preserve"
     style="font-style:normal;font-weight:normal;font-size:12px;line-height:1.25;font-family:sans-serif;letter-spacing:0px;word-spacing:0px;fill:#ffd5d5;fill-opacity:1;stroke:none;stroke-width:0.999999;"
     x="26.324217"
     y="18.731205"
     id="text852"><tspan
       sodipodi:role="line"
       id="tspan850"
       x="26.324217"
       y="18.731205"
       style="fill:#ffd5d5;stroke-width:0.999999;">j</tspan></text>
  <g
     transform="translate(1,3)"
     id="g19">
    <g
       transform="scale(0.8)"
       id="g17">
      <circle
         cx="26"
         cy="5"
         r="3"
         fill="rgb(0,220,220)"
         id="circle13" />
      <path
         d="M0 0         m9 2         c-14 0, 16 28, 2 28         l18 0         m-20 -28         l18 0         c-14 0, 16 28, 2 28         m-20 -28         m0 3 l11 0         m-9 5 l11 0         m-9 5 l11 0         m-9 5 l11 0         m-9 5 l11 0         m-1 -23         c6 0, 0 10, -2.5 4         c-1 -3, 2 -4, 3 -1         "
         stroke="black"
         stroke-width="0.5"
         fill-opacity="1"
         fill="url(#grad1)"
         id="path15" />
    </g>
  </g>
</svg>
